# xmcd
# 
# Track frame offsets:
#     150
#     20050
#     35692
#     49630
#     63057
#     74917
#     101622
#     112287
#     122132
#     142307
#     163777
#     179907
#     205132
#     208610
#     221220
#     250647
# 
# Disc length: 3752
# 
# Revision: 1
# Processed by: cddbd v1.5.2PL0 Copyright (c) Steve Scherf et al.
# Submitted via: BonkEnc v1.0.8
# 
DISCID=0b0ea610
DTITLE=Paul Bley - Echo
DYEAR=1999
DGENRE=Contemporary Jazz
TTITLE0=Offhand
TTITLE1=Noteworthy
TTITLE2=Highstrung
TTITLE3=Mispoke
TTITLE4=Construct
TTITLE5=Symmetry
TTITLE6=Light
TTITLE7=Primitivo
TTITLE8=Osmosis
TTITLE9=Indolence
TTITLE10=Spirits
TTITLE11=Desolet
TTITLE12=Makeover
TTITLE13=Exposures
TTITLE14=Background
TTITLE15=Snaps
EXTD=YEAR: 1999
EXTT0=
EXTT1=
EXTT2=
EXTT3=
EXTT4=
EXTT5=
EXTT6=
EXTT7=
EXTT8=
EXTT9=
EXTT10=
EXTT11=
EXTT12=
EXTT13=
EXTT14=
EXTT15=
PLAYORDER=
